<!DOCTYPE svg PUBLIC "-//W3C//DTD SVG 1.1//EN" "http://www.w3.org/Graphics/SVG/1.1/DTD/svg11.dtd">
<!-- Uploaded to: SVG Repo, www.svgrepo.com, Transformed by: SVG Repo Mixer Tools -->
<svg fill="#028c35" height="800px" width="800px" version="1.1" id="Capa_1" xmlns="http://www.w3.org/2000/svg" xmlns:xlink="http://www.w3.org/1999/xlink" viewBox="0 0 426.949 426.949" xml:space="preserve">
<g id="SVGRepo_bgCarrier" stroke-width="0"/>
<g id="SVGRepo_tracerCarrier" stroke-linecap="round" stroke-linejoin="round"/>
<g id="SVGRepo_iconCarrier"> <g> <path d="M202.353,29.346c2.468,5.197,8.667,9.202,14.419,9.316l14.158,0.281c-0.822,3.595-1.271,7.33-1.271,11.17 c0,27.633,22.48,50.114,50.113,50.114s50.113-22.481,50.113-50.114C329.886,22.48,307.406,0,279.773,0 c-9.826,0-18.993,2.854-26.737,7.76l-46.104-0.106c-3.579,0-6.595,1.523-8.272,4.178c-1.68,2.657-1.761,6.038-0.222,9.275 L202.353,29.346z"/> <path d="M184.12,284.593h-8.598v-64.512c0-8.271-6.729-15-15-15H78.284c-8.271,0-15,6.729-15,15v64.512h-8.598 c-8.271,0-15,6.729-15,15v112.356c0,8.271,6.729,15,15,15H184.12c8.271,0,15-6.729,15-15V299.593 C199.12,291.322,192.392,284.593,184.12,284.593z M119.404,240.14l18.829,21.232h-9.829v26.455H110.4v-26.454h-9.826 L119.404,240.14z M132.559,364.561v38.667h-26.316v-38.665H91.881l27.523-31.036l27.521,31.034H132.559z"/> <path d="M383.81,178.833l-38.36-53.447c-4.178-5.82-10.692-10.208-19.894-10.208h-0.009H118.953c-8.271,0-15,6.729-15,15v8.667 c0,8.271,6.729,15,15,15h108.051v255.105c0,9.925,8.075,18,18,18h12.31c9.925,0,18-8.075,18-18V284.003h8.925v124.946 c0,9.925,8.075,18,18,18h12.31c9.925,0,18-8.075,18-18V258.208h2.187c7.254,0,15.689-4.598,19.622-10.694l30.005-46.526 C388.434,194.671,388.193,184.94,383.81,178.833z M332.547,165.745l15.809,22.687c1.941,2.785,1.921,7.844-0.042,10.614 L332.547,221.3V165.745z"/> </g> </g>
</svg>